<svg id="Layer_1" data-name="Layer 1" xmlns="http://www.w3.org/2000/svg" viewBox="0 0 323.25 78.79"><path d="M622.88,855.88a8.06,8.06,0,0,1-2-5.14,6.82,6.82,0,0,1,6.88-6.57,7.45,7.45,0,0,1,5.86,3.08c2.77,3.49,5.54,5.13,10.16,5.13s8.22-1.74,8.22-4.82c0-8.84-31.12-3.5-31.12-22.81,0-10.68,9.76-16.84,21.57-16.84,8.11,0,16.13,3.08,19.62,6.88a7.6,7.6,0,0,1,2.26,5.24,5.88,5.88,0,0,1-6,5.85,9,9,0,0,1-6.16-2.77,14.48,14.48,0,0,0-10-4.21c-3.8,0-7.19,1.64-7.19,4.62,0,8.83,31.64,2.88,31.64,23,0,11.19-9.86,17.26-23,17.26C634.49,863.79,627.09,860.91,622.88,855.88Z" transform="translate(-620.83 -785)"/><path d="M723.75,831.43v24.45a7.4,7.4,0,1,1-14.79,0V833.69c0-10.38-5.85-13.25-11.4-13.25-7,0-12,4.41-12,13.66v22.08a7.29,7.29,0,1,1-14.58,0V792.29a7.29,7.29,0,0,1,14.58,0v24.24c3.39-5.44,8.83-8.62,16.54-8.62C713.38,807.91,723.75,815.1,723.75,831.43Z" transform="translate(-620.83 -785)"/><path d="M788.88,815.82v40.36a7.07,7.07,0,0,1-7.3,7.3,7.14,7.14,0,0,1-7.39-7.3v-2.67c-2.67,6.37-9.76,10.28-18.7,10.28-16.23,0-25.88-12.74-25.88-28,0-15.92,10.17-27.83,26.7-27.83,6.68,0,13.77,3,17.88,8.93v-1c0-4.93,3.69-7.3,7.39-7.3A7,7,0,0,1,788.88,815.82Zm-14.8,20c0-8.43-6.16-14.69-14.79-14.69s-15,6.16-15,14.69c0,8.73,6.26,14.89,15,14.89S774.08,844.37,774.08,835.85Z" transform="translate(-620.83 -785)"/><path d="M822.93,808.83c4.52,0,6.57,2.77,6.57,5.75,0,3.29-2.36,6.78-7.91,7.09-6.88.41-10.27,4.11-10.27,10.38v24.13a7.3,7.3,0,1,1-14.59,0V815.61a7.3,7.3,0,0,1,14.59,0v.1a13.15,13.15,0,0,1,10.07-6.78A7.92,7.92,0,0,1,822.93,808.83Z" transform="translate(-620.83 -785)"/><path d="M882,833.69c0,4.31-2.77,6.47-7.19,6.47H841.42c.61,6.78,6.67,11.61,14.17,11.61a14.4,14.4,0,0,0,11.51-5.34,5.88,5.88,0,0,1,4.72-2.37,6.1,6.1,0,0,1,4.42,10.48,27.17,27.17,0,0,1-20.75,9.25c-16.54,0-28.56-11.1-28.56-27.74,0-16.13,11.51-28.14,27.63-28.14s25.58,10.37,27.33,24.24A8,8,0,0,1,882,833.69Zm-40.57-3.19h26.39c-.61-6.47-6.06-10.88-13.25-10.88S841.83,824,841.42,830.5Z" transform="translate(-620.83 -785)"/><path d="M886.77,795.48a8.22,8.22,0,1,1,8.21,8.21A8.24,8.24,0,0,1,886.77,795.48Zm.92,20.13a7.3,7.3,0,0,1,14.59,0v40.57a7.3,7.3,0,1,1-14.59,0Z" transform="translate(-620.83 -785)"/><path d="M938.43,809a5.75,5.75,0,0,1,0,11.5H931v35.64a7.3,7.3,0,1,1-14.59,0V820.54h-3.7a5.75,5.75,0,0,1,0-11.5h3.7v-9.15a7.3,7.3,0,0,1,14.59,0V809Z" transform="translate(-620.83 -785)"/></svg>